<?xml version="1.0" encoding="UTF-8"?>
<svg 
  xmlns="http://www.w3.org/2000/svg" 
  xmlns:xlink="http://www.w3.org/1999/xlink" viewBox="0 0 32 32">
  <style>:root&gt;svg{display:none}:root&gt;svg:target{display:block}</style>
  <svg id="cart" viewBox="0 0 30 32">
    <path fill="#fff" style="fill: var(--color1, #fff)" d="M28.766 20.776c-0.007-2.008-1.248-3.725-3.004-4.433l-0.032-0.011 2.988-11.186c0.033-0.121 0.052-0.26 0.052-0.404 0-0.373-0.128-0.717-0.342-0.989l0.003 0.003c-0.295-0.344-0.731-0.561-1.216-0.561-0.016 0-0.032 0-0.048 0.001l0.002-0h-21.894l-0.528-2.014c-0.19-0.686-0.809-1.182-1.544-1.182-0.002 0-0.004 0-0.006 0h-3.196v3.196h1.966l3.964 14.8c0.191 0.686 0.81 1.181 1.544 1.181 0.019 0 0.038-0 0.057-0.001l-0.003 0h16.444c0.859 0.031 1.543 0.735 1.543 1.599s-0.684 1.568-1.541 1.599l-0.003 0h-20.776c-0.024-0.001-0.052-0.002-0.080-0.002-0.884 0-1.6 0.716-1.6 1.6s0.716 1.6 1.6 1.6c0.028 0 0.056-0.001 0.084-0.002l-0.004 0h1.886c-0.182 0.486-0.287 1.048-0.287 1.634 0 2.648 2.146 4.794 4.794 4.794s4.794-2.146 4.794-4.794c0-0.586-0.105-1.148-0.298-1.667l0.011 0.033h3.77c-0.183 0.487-0.288 1.050-0.288 1.637 0 2.648 2.146 4.794 4.794 4.794s4.794-2.146 4.794-4.794c0-0.879-0.237-1.703-0.65-2.412l0.012 0.023c1.35-0.86 2.235-2.347 2.24-4.041v-0.001zM22.52 15.98h-13.73l-2.654-9.588h18.954l-2.57 9.59zM9.59 28.764c-0.024 0.001-0.052 0.002-0.080 0.002-0.884 0-1.6-0.716-1.6-1.6s0.716-1.6 1.6-1.6c0.028 0 0.056 0.001 0.084 0.002l-0.004-0c0.849 0.044 1.52 0.742 1.52 1.598s-0.671 1.554-1.516 1.598l-0.004 0zM22.376 28.764c-0.024 0.001-0.052 0.002-0.080 0.002-0.884 0-1.6-0.716-1.6-1.6s0.716-1.6 1.6-1.6c0.028 0 0.056 0.001 0.084 0.002l-0.004-0c0.849 0.044 1.52 0.742 1.52 1.598s-0.671 1.554-1.516 1.598l-0.004 0z"></path>
  </svg>
</svg>